<svg xmlns="http://www.w3.org/2000/svg" xmlns:xlink="http://www.w3.org/1999/xlink" viewBox="0 0 243.5 97.6"><defs><style>.cls-1{fill-rule:evenodd;fill:url(#linear-gradient);}.cls-2{isolation:isolate;font-size:55px;fill:#564a44;font-family:Bauhaus93, "Bauhaus 93";}</style><linearGradient id="linear-gradient" x1="42.61" y1="62.37" x2="111.61" y2="-6.63" gradientTransform="matrix(1, 0, 0, -1, 0, 76.69)" gradientUnits="userSpaceOnUse"><stop offset="0" stop-color="#b47722"/><stop offset="1" stop-color="#8b386a"/></linearGradient></defs><title>logo_med</title><g id="Layer_2" data-name="Layer 2"><g id="Layer_1-2" data-name="Layer 1"><path class="cls-1" d="M56.81,93.2a48.78,48.78,0,1,1,44.7-2.1V35.4a2.74,2.74,0,0,0-2.7-2.9c-5.3,0-13.1,21-15.8,44.8h8.4V95.5a47.85,47.85,0,0,1-14.2,2.1,55.78,55.78,0,0,1-10.1-1V71.8c0-2.4,1.5-3.1,4.7-5.7a9.41,9.41,0,0,0,3.8-8c-.9-8.6-3.2-25.6-3.2-25.6h-1.9V52.8H67l-.7-20.3h-1.9l-.8,20.3h-3.4l-.6-20.3h-2.1l-.8,20.3h-3.4V32.5h-2s-2.1,17.1-2.9,25.7a9.26,9.26,0,0,0,3.7,7.9c3.2,2.6,4.7,3.3,4.7,5.7Z"/><text class="cls-2" transform="translate(0 74.62)">f</text><text class="cls-2" transform="translate(131.84 74.62)">rkify</text></g></g></svg>